<svg width="36" height="36" viewBox="0 0 36 36" fill="none" xmlns="http://www.w3.org/2000/svg">
<path d="M4.58333 0.75C2.45583 0.75 0.75 2.45583 0.75 4.58333V31.4167C0.75 32.4333 1.15387 33.4084 1.87276 34.1272C2.59165 34.8461 3.56667 35.25 4.58333 35.25H31.4167C32.4333 35.25 33.4084 34.8461 34.1272 34.1272C34.8461 33.4084 35.25 32.4333 35.25 31.4167V18H31.4167V31.4167H4.58333V4.58333H18V0.75H4.58333ZM29.0783 2.66667C28.7334 2.66958 28.4033 2.80713 28.1583 3.05L25.82 5.36917L30.6117 10.1608L32.95 7.84167C33.4483 7.34333 33.4483 6.5 32.95 6.02083L29.9792 3.05C29.73 2.80083 29.4042 2.66667 29.0783 2.66667ZM24.4592 6.73L10.3333 20.875V25.6667H15.125L29.2508 11.5217L24.4592 6.73Z" fill="white"/>
</svg>
