<svg width="786" height="1117" viewBox="0 0 786 1117" fill="none" xmlns="http://www.w3.org/2000/svg">
<g clip-path="url(#clip0_104_216)">
<path d="M610.241 1078.8C604.046 1078.8 597.85 1078.19 591.655 1076.67C377.578 1025.12 131.148 928.127 -102.433 803.682C-155.436 775.316 -181.134 695.708 -159.796 625.25C-138.457 554.792 -78.57 520.63 -25.5669 548.997C195.394 666.731 427.598 758.235 628.367 806.732C684.583 820.153 721.754 891.526 711.658 966.254C702.709 1032.44 659.343 1078.8 610.241 1078.8Z" fill="#497FFF"/>
<path d="M602.439 541.066C599.915 541.066 597.621 541.066 595.097 540.761C247.25 508.43 -28.3206 456.883 -247.217 383.07C-302.514 364.464 -336.014 289.736 -321.788 216.228C-307.791 142.72 -251.576 98.4934 -196.278 117.099C10.4565 186.947 274.095 236.054 609.552 267.165C666.456 272.35 709.363 337.928 705.463 413.571C701.562 485.859 656.131 541.066 602.439 541.066Z" fill="#497FFF"/>
<path d="M-149.241 393.745C-182.511 393.745 -213.028 391.305 -238.956 385.51C-295.172 373.005 -333.031 301.937 -323.623 227.209C-314.216 152.481 -260.754 102.154 -204.539 114.659C-150.847 126.86 -10.8822 118.014 220.633 57.6217C398.228 11.2598 569.857 -51.2677 638.234 -94.8845C689.63 -127.521 751.353 -98.5446 775.904 -30.2218C800.455 38.1009 778.657 120.149 727.26 152.786C624.237 218.363 411.307 287.296 260.328 326.948C155.699 354.399 -17.7658 393.745 -149.241 393.745Z" fill="url(#paint0_linear_104_216)"/>
<path d="M120.364 1249C65.5249 1249 20.0936 1191.96 17.3402 1118.45C14.5868 1042.81 58.4119 978.454 115.545 974.794C286.486 963.814 436.317 912.266 560.679 821.373C610.7 784.771 673.34 809.172 700.874 875.665C728.408 942.158 710.052 1025.43 660.031 1062.03C507.906 1173.05 328.016 1235.88 125.411 1249C123.576 1249 121.97 1249 120.364 1249Z" fill="url(#paint1_linear_104_216)"/>
<path d="M-63.8851 813.747C-116.659 813.747 -161.631 760.37 -166.679 688.997C-171.956 613.659 -130.196 546.557 -73.2926 539.846C208.702 505.38 347.749 433.092 552.649 283.636C602.669 247.339 665.309 271.435 692.843 337.928C720.148 404.421 702.021 487.689 652.001 524.291C545.765 601.764 452.379 663.376 342.242 711.568C227.747 761.59 101.778 793.922 -54.2482 813.137C-57.4605 813.442 -60.6728 813.747 -63.8851 813.747Z" fill="url(#paint2_linear_104_216)"/>
</g>
<defs>
<linearGradient id="paint0_linear_104_216" x1="-324.571" y1="139.555" x2="785.078" y2="146.96" gradientUnits="userSpaceOnUse">
<stop stop-color="#09A7BC"/>
<stop offset="1" stop-color="#2EC0EE"/>
</linearGradient>
<linearGradient id="paint1_linear_104_216" x1="17.5221" y1="1023.87" x2="713.119" y2="1027.15" gradientUnits="userSpaceOnUse">
<stop stop-color="#09A7BC"/>
<stop offset="1" stop-color="#2EC0EE"/>
</linearGradient>
<linearGradient id="paint2_linear_104_216" x1="-1733.5" y1="540" x2="704.816" y2="535.688" gradientUnits="userSpaceOnUse">
<stop stop-color="#0926BC"/>
<stop offset="1" stop-color="#2EC0EE"/>
</linearGradient>
<clipPath id="clip0_104_216">
<rect width="1111" height="1357" fill="white" transform="translate(-325 -108)"/>
</clipPath>
</defs>
</svg>
