<svg width="259" height="218" viewBox="0 0 259 218" fill="none" xmlns="http://www.w3.org/2000/svg">
<g clip-path="url(#clip0_104_210)">
<path d="M310.625 296.482C308.567 296.482 306.509 296.33 304.452 295.949C233.349 283.071 151.502 258.841 73.922 227.753C56.3179 220.666 47.7826 200.779 54.8699 183.177C61.9573 165.576 81.8476 157.042 99.4517 164.128C172.84 193.54 249.963 216.399 316.645 228.514C335.316 231.867 347.662 249.697 344.309 268.365C341.336 284.9 326.933 296.482 310.625 296.482Z" fill="#0AA7BD"/>
<path d="M308.033 162.147C307.195 162.147 306.433 162.147 305.595 162.071C190.063 153.994 98.5372 141.117 25.8346 122.677C7.46839 118.029 -3.658 99.3608 1.06691 80.9973C5.71561 62.6339 24.3866 51.5853 42.7528 56.2333C111.416 73.6824 198.98 85.9501 310.396 93.7222C329.295 95.0175 343.546 111.4 342.251 130.297C340.955 148.355 325.866 162.147 308.033 162.147Z" fill="#0AA7BD"/>
<path d="M58.3755 125.344C47.3253 125.344 37.1896 124.734 28.5781 123.287C9.9071 120.163 -2.66725 102.409 0.457285 83.7404C3.58182 65.0721 21.3383 52.4997 40.0093 55.6237C57.842 58.6716 104.329 56.4619 181.223 41.3749C240.208 29.793 297.212 14.1726 319.922 3.27646C336.993 -4.87661 357.493 2.3621 365.647 19.4302C373.801 36.4983 366.561 56.9953 349.491 65.1483C315.273 81.5307 244.552 98.7512 194.407 108.657C159.656 115.515 102.043 125.344 58.3755 125.344Z" fill="url(#paint0_linear_104_210)"/>
<path d="M86.7249 230.267C69.197 230.267 54.2602 216.933 52.5836 199.102C50.8308 180.282 64.7007 163.519 83.6003 161.842C177.26 153.232 223.442 135.173 291.496 97.8368C308.11 88.7694 328.914 94.7889 338.059 111.4C347.128 128.011 341.108 148.813 324.494 157.956C289.21 177.31 258.193 192.702 221.613 204.741C183.585 217.237 141.747 225.314 89.9256 230.115C88.8587 230.191 87.7918 230.267 86.7249 230.267Z" fill="url(#paint1_linear_104_210)"/>
</g>
<defs>
<linearGradient id="paint0_linear_104_210" x1="0.142477" y1="61.8431" x2="368.681" y2="65.113" gradientUnits="userSpaceOnUse">
<stop stop-color="#09A7BC"/>
<stop offset="1" stop-color="#2EC0EE"/>
</linearGradient>
<linearGradient id="paint1_linear_104_210" x1="52.5611" y1="161.08" x2="342.04" y2="162.932" gradientUnits="userSpaceOnUse">
<stop stop-color="#09A7BC"/>
<stop offset="1" stop-color="#2EC0EE"/>
</linearGradient>
<clipPath id="clip0_104_210">
<rect width="369" height="339" fill="white"/>
</clipPath>
</defs>
</svg>
